/* XPM */
static char * C:\Bratcoin\share\pixmaps\bitcoin16_xpm[] = {
"16 16 163 2",
"  	c #000000",
". 	c #000001",
"+ 	c #010102",
"@ 	c #010101",
"# 	c #030304",
"$ 	c #030406",
"% 	c #020309",
"& 	c #201C20",
"* 	c #343033",
"= 	c #282729",
"- 	c #090F10",
"; 	c #04090D",
"> 	c #050508",
", 	c #000002",
"' 	c #070916",
") 	c #514E52",
"! 	c #A69699",
"~ 	c #C2AFB0",
"{ 	c #AFA1A3",
"] 	c #514B4D",
"^ 	c #585458",
"/ 	c #2A282F",
"( 	c #0F0D18",
"_ 	c #030205",
": 	c #010104",
"< 	c #121018",
"[ 	c #352D32",
"} 	c #92858B",
"| 	c #B39FA3",
"1 	c #AB9698",
"2 	c #A48F91",
"3 	c #756063",
"4 	c #938D8F",
"5 	c #8E888C",
"6 	c #3B3043",
"7 	c #140D22",
"8 	c #04030B",
"9 	c #241E32",
"0 	c #867D87",
"a 	c #5E535F",
"b 	c #7F727C",
"c 	c #604B53",
"d 	c #663239",
"e 	c #4F282C",
"f 	c #262529",
"g 	c #24292F",
"h 	c #8C878A",
"i 	c #9C8B99",
"j 	c #322445",
"k 	c #0D0919",
"l 	c #5B5364",
"m 	c #978F94",
"n 	c #262C3C",
"o 	c #161E28",
"p 	c #1A1A1E",
"q 	c #22161A",
"r 	c #171114",
"s 	c #0C1C20",
"t 	c #191A20",
"u 	c #837B7E",
"v 	c #C2B3B8",
"w 	c #574B59",
"x 	c #04050E",
"y 	c #000101",
"z 	c #0E121A",
"A 	c #5C5E62",
"B 	c #4E4D4E",
"C 	c #112725",
"D 	c #040E0F",
"E 	c #02090B",
"F 	c #070A0B",
"G 	c #422226",
"H 	c #6A5557",
"I 	c #8D7D80",
"J 	c #42434A",
"K 	c #02040A",
"L 	c #171F1F",
"M 	c #948F8C",
"N 	c #72645C",
"O 	c #35362B",
"P 	c #040E0B",
"Q 	c #0D0809",
"R 	c #433A3A",
"S 	c #6E5F5E",
"T 	c #5A5A5B",
"U 	c #010204",
"V 	c #111712",
"W 	c #A19892",
"X 	c #B2998C",
"Y 	c #5D4F42",
"Z 	c #2B170F",
"` 	c #020201",
" .	c #030202",
"..	c #3F1515",
"+.	c #614846",
"@.	c #AA9B9A",
"#.	c #767070",
"$.	c #020304",
"%.	c #050705",
"&.	c #706964",
"*.	c #C4B0A9",
"=.	c #83695D",
"-.	c #5C251A",
";.	c #1F1610",
">.	c #020605",
",.	c #030405",
"'.	c #121414",
").	c #552222",
"!.	c #856D6C",
"~.	c #B4A9A8",
"{.	c #645E5D",
"].	c #060A08",
"^.	c #000100",
"/.	c #2E2C29",
"(.	c #B3A6A2",
"_.	c #B6A69F",
":.	c #674E47",
"<.	c #252420",
"[.	c #0F1D1D",
"}.	c #392326",
"|.	c #2A2429",
"1.	c #6E6061",
"2.	c #B2A1A1",
"3.	c #968988",
"4.	c #2C3230",
"5.	c #060A09",
"6.	c #030504",
"7.	c #68615F",
"8.	c #BCB1AE",
"9.	c #A2918D",
"0.	c #7F7273",
"a.	c #3E4048",
"b.	c #2E2534",
"c.	c #6C5F66",
"d.	c #A29499",
"e.	c #B9ACAD",
"f.	c #5D5757",
"g.	c #070C0C",
"h.	c #080C0B",
"i.	c #585454",
"j.	c #9A9293",
"k.	c #847378",
"l.	c #9B939A",
"m.	c #858388",
"n.	c #636069",
"o.	c #8E8992",
"p.	c #555258",
"q.	c #0D1014",
"r.	c #010306",
"s.	c #18171D",
"t.	c #2C2A39",
"u.	c #655D6B",
"v.	c #665D74",
"w.	c #3F355B",
"x.	c #2B2446",
"y.	c #120D1D",
"z.	c #010106",
"A.	c #03020E",
"B.	c #130923",
"C.	c #12081F",
"D.	c #0A0513",
"E.	c #020102",
"F.	c #010001",
"  . + + @ @ # $ @ @ @ @ @ + .   ",
"        . % & * = - ; > @       ",
"      , ' ) ! ~ { ] ^ / ( _     ",
"    : < [ } | 1 2 3 4 5 6 7 +   ",
"  8 9 0 a b c d e f g h i j :   ",
". k l m n o p q r s t u v w x   ",
"y z A B C D E .   F G H I J K   ",
"@ L M N O P @     @ Q R S T U   ",
"  V W X Y Z `      ...+.@.#.$.  ",
"  %.&.*.=.-.;.>.,.'.).!.~.{.].  ",
"  ^./.(._.:.<.[.}.|.1.2.3.4.5.  ",
"    6.7.8.9.0.a.b.c.d.e.f.g.^.  ",
"      h.i.j.k.l.m.n.o.p.q.y     ",
"        r.s.t.u.v.w.x.y..       ",
"            z.A.B.C.D.E.        ",
"                F..             "};
