/* XPM */
static char * C:\Bratcoin\share\pixmaps\bitcoin32_xpm[] = {
"32 32 552 2",
"  	c None",
". 	c #000000",
"+ 	c #000001",
"@ 	c #010103",
"# 	c #010102",
"$ 	c #010101",
"% 	c #030203",
"& 	c #060609",
"* 	c #050708",
"= 	c #060709",
"- 	c #08070C",
"; 	c #090C11",
"> 	c #080D10",
", 	c #111418",
"' 	c #030709",
") 	c #010406",
"! 	c #000101",
"~ 	c #000202",
"{ 	c #00030C",
"] 	c #010510",
"^ 	c #04060C",
"/ 	c #221E24",
"( 	c #302C31",
"_ 	c #323135",
": 	c #26282C",
"< 	c #181A1D",
"[ 	c #01080A",
"} 	c #021216",
"| 	c #061117",
"1 	c #02070B",
"2 	c #0A0B0F",
"3 	c #09090D",
"4 	c #000108",
"5 	c #010211",
"6 	c #020B21",
"7 	c #1B1C27",
"8 	c #65555A",
"9 	c #9A878B",
"0 	c #B29C9F",
"a 	c #B5A9AB",
"b 	c #AEA3A5",
"c 	c #928587",
"d 	c #514E4F",
"e 	c #21272B",
"f 	c #1F2A31",
"g 	c #1D242C",
"h 	c #14171E",
"i 	c #0D0E15",
"j 	c #0F0E16",
"k 	c #07040B",
"l 	c #000107",
"m 	c #03081F",
"n 	c #292A2E",
"o 	c #858183",
"p 	c #BBACAE",
"q 	c #D1C0C1",
"r 	c #D9C3C4",
"s 	c #D5BCBD",
"t 	c #D0BBBD",
"u 	c #BAADAF",
"v 	c #61595A",
"w 	c #3D3B3E",
"x 	c #7C7476",
"y 	c #665F64",
"z 	c #36323C",
"A 	c #1B1A26",
"B 	c #0D0F1C",
"C 	c #130E1C",
"D 	c #07040C",
"E 	c #00010A",
"F 	c #010107",
"G 	c #3D3A3C",
"H 	c #9D9A9B",
"I 	c #A49A9E",
"J 	c #BBA5A9",
"K 	c #D0BCBE",
"L 	c #CFBDBE",
"M 	c #C9BBBD",
"N 	c #AB9597",
"O 	c #835C5F",
"P 	c #443B3E",
"Q 	c #ACA5A7",
"R 	c #C7C0C1",
"S 	c #8E868A",
"T 	c #493F4E",
"U 	c #262033",
"V 	c #100C1A",
"W 	c #180E21",
"X 	c #030207",
"Y 	c #03030C",
"Z 	c #100F16",
"` 	c #050510",
" .	c #3F2E35",
"..	c #785E69",
"+.	c #94808C",
"@.	c #B2A1A7",
"#.	c #957A80",
"$.	c #79595F",
"%.	c #725056",
"&.	c #7A555B",
"*.	c #9E8588",
"=.	c #9E8789",
"-.	c #524648",
";.	c #2E2E31",
">.	c #898385",
",.	c #C5C0C1",
"'.	c #887F85",
").	c #514159",
"!.	c #2C213C",
"~.	c #14112E",
"{.	c #170C1F",
"].	c #020108",
"^.	c #08061D",
"/.	c #3D344A",
"(.	c #7A707D",
"_.	c #2C2537",
":.	c #6D4E5D",
"<.	c #998892",
"[.	c #9F9099",
"}.	c #7B6A72",
"|.	c #604851",
"1.	c #663E47",
"2.	c #693841",
"3.	c #5E282C",
"4.	c #39282D",
"5.	c #342D31",
"6.	c #151E23",
"7.	c #101D24",
"8.	c #1E2026",
"9.	c #7B7377",
"0.	c #BCB7B8",
"a.	c #938893",
"b.	c #62406C",
"c.	c #2F2557",
"d.	c #181029",
"e.	c #000102",
"f.	c #0F0A1B",
"g.	c #110D2A",
"h.	c #2B2343",
"i.	c #968A94",
"j.	c #BDB5BA",
"k.	c #343042",
"l.	c #7C7780",
"m.	c #7A727C",
"n.	c #3D3743",
"o.	c #202028",
"p.	c #562C33",
"q.	c #692228",
"r.	c #682227",
"s.	c #641E23",
"t.	c #1A0D11",
"u.	c #040D11",
"v.	c #0A161B",
"w.	c #13202B",
"x.	c #333741",
"y.	c #948F94",
"z.	c #CEC7CA",
"A.	c #9E798F",
"B.	c #402D55",
"C.	c #0C0B23",
"D.	c #030206",
"E.	c #140D20",
"F.	c #131434",
"G.	c #66556E",
"H.	c #C0B2B8",
"I.	c #91878E",
"J.	c #151E35",
"K.	c #26334A",
"L.	c #142333",
"M.	c #07131A",
"N.	c #061116",
"O.	c #2D1C20",
"P.	c #2A2327",
"Q.	c #261E22",
"R.	c #261D21",
"S.	c #0D1418",
"T.	c #0D1F24",
"U.	c #051116",
"V.	c #081218",
"W.	c #0E1921",
"X.	c #473E45",
"Y.	c #B2ADB1",
"Z.	c #C5B9BD",
"`.	c #D2B9BF",
" +	c #544058",
".+	c #1B152A",
"++	c #010104",
"@+	c #0B0611",
"#+	c #0E0C1F",
"$+	c #232542",
"%+	c #7F7683",
"&+	c #B9B3B5",
"*+	c #444249",
"=+	c #071625",
"-+	c #071C2A",
";+	c #050F16",
">+	c #06151A",
",+	c #0B1F22",
"'+	c #0B1B1D",
")+	c #040709",
"!+	c #010203",
"~+	c #020405",
"{+	c #0A171B",
"]+	c #14292E",
"^+	c #0F191E",
"/+	c #171319",
"(+	c #3C2A30",
"_+	c #A39699",
":+	c #BAB4B8",
"<+	c #CDC0C4",
"[+	c #7D6C78",
"}+	c #1E1F36",
"|+	c #0A0C1D",
"1+	c #0B0A14",
"2+	c #0C0E1B",
"3+	c #262E3E",
"4+	c #8C8B8F",
"5+	c #817C7D",
"6+	c #162127",
"7+	c #0A1C1F",
"8+	c #081E1F",
"9+	c #051517",
"0+	c #051718",
"a+	c #071013",
"b+	c #3D2E32",
"c+	c #5E2327",
"d+	c #422225",
"e+	c #8A7678",
"f+	c #A49094",
"g+	c #887E83",
"h+	c #6E6C73",
"i+	c #121D2D",
"j+	c #040813",
"k+	c #0A0C13",
"l+	c #0C151C",
"m+	c #313C3F",
"n+	c #5C5E5E",
"o+	c #2E2F2E",
"p+	c #0C1B1A",
"q+	c #162F2A",
"r+	c #17302C",
"s+	c #020B0B",
"t+	c #020304",
"u+	c #010001",
"v+	c #000100",
"w+	c #020404",
"x+	c #261E20",
"y+	c #4A2124",
"z+	c #2C1A1D",
"A+	c #806668",
"B+	c #978182",
"C+	c #6D6062",
"D+	c #2A383F",
"E+	c #061218",
"F+	c #010307",
"G+	c #0C0F13",
"H+	c #0C1D1F",
"I+	c #5B5B58",
"J+	c #A7A19F",
"K+	c #58534E",
"L+	c #36302A",
"M+	c #2D3B2F",
"N+	c #183027",
"O+	c #030E0B",
"P+	c #020A09",
"Q+	c #010202",
"R+	c #030506",
"S+	c #040809",
"T+	c #060C0E",
"U+	c #584849",
"V+	c #5E4F4F",
"W+	c #2F2C2D",
"X+	c #65696A",
"Y+	c #061012",
"Z+	c #010305",
"`+	c #0A0F10",
" @	c #132420",
".@	c #686963",
"+@	c #D2CBC7",
"@@	c #917E72",
"#@	c #7A6257",
"$@	c #574435",
"%@	c #101E16",
"&@	c #030F0A",
"*@	c #030C08",
"=@	c #080708",
"-@	c #0E1313",
";@	c #4F4A49",
">@	c #90807E",
",@	c #705554",
"'@	c #949494",
")@	c #070B0C",
"!@	c #010201",
"~@	c #0A1B15",
"{@	c #636058",
"]@	c #D8CAC6",
"^@	c #B19284",
"/@	c #AC9B8F",
"(@	c #585141",
"_@	c #0E2116",
":@	c #0C170F",
"<@	c #030805",
"[@	c #0A0404",
"}@	c #421716",
"|@	c #441C1B",
"1@	c #705D5C",
"2@	c #A59290",
"3@	c #9D8584",
"4@	c #9A9696",
"5@	c #080808",
"6@	c #010405",
"7@	c #05130D",
"8@	c #505146",
"9@	c #CDC1BD",
"0@	c #BB9789",
"a@	c #B7A093",
"b@	c #826F5E",
"c@	c #442C1D",
"d@	c #51281A",
"e@	c #0E0704",
"f@	c #020302",
"g@	c #270808",
"h@	c #642423",
"i@	c #532725",
"j@	c #634847",
"k@	c #BCB2B1",
"l@	c #B5A8A8",
"m@	c #A89F9E",
"n@	c #1C1817",
"o@	c #010505",
"p@	c #030604",
"q@	c #2F3228",
"r@	c #A8A09B",
"s@	c #C6AAA1",
"t@	c #BFABA1",
"u@	c #8E7160",
"v@	c #5D392A",
"w@	c #6B261A",
"x@	c #41180F",
"y@	c #0A0E09",
"z@	c #010302",
"A@	c #130F0F",
"B@	c #4C201F",
"C@	c #682220",
"D@	c #583130",
"E@	c #856C6A",
"F@	c #C5BEBD",
"G@	c #C7BDBC",
"H@	c #998E8E",
"I@	c #121312",
"J@	c #020504",
"K@	c #040605",
"L@	c #060A06",
"M@	c #181F15",
"N@	c #6F655E",
"O@	c #CDBDB8",
"P@	c #D0BFBA",
"Q@	c #A0887C",
"R@	c #5B4332",
"S@	c #682D21",
"T@	c #602218",
"U@	c #362219",
"V@	c #101E18",
"W@	c #030B09",
"X@	c #010303",
"Y@	c #030505",
"Z@	c #051516",
"`@	c #142222",
" #	c #4B1A1A",
".#	c #592524",
"+#	c #573131",
"@#	c #B69F9E",
"##	c #B3A3A2",
"$#	c #A19595",
"%#	c #6B6261",
"&#	c #17211E",
"*#	c #080D0B",
"=#	c #080C0B",
"-#	c #030905",
";#	c #3B3731",
">#	c #BCB4B1",
",#	c #BEA9A3",
"'#	c #CCBDB7",
")#	c #796355",
"!#	c #512C23",
"~#	c #5C261C",
"{#	c #281812",
"]#	c #0A1E19",
"^#	c #0C2623",
"/#	c #081F1F",
"(#	c #1D2122",
"_#	c #2B2223",
":#	c #101B1C",
"<#	c #051114",
"[#	c #1B1B1D",
"}#	c #5D4A49",
"|#	c #948180",
"1#	c #C9BDBD",
"2#	c #897473",
"3#	c #867876",
"4#	c #3C423F",
"5#	c #132220",
"6#	c #080F0E",
"7#	c #040606",
"8#	c #010402",
"9#	c #070A06",
"0#	c #7A706D",
"a#	c #D3C7C3",
"b#	c #CEBBB6",
"c#	c #BEB2AC",
"d#	c #79675F",
"e#	c #56473E",
"f#	c #222A24",
"g#	c #081615",
"h#	c #08191A",
"i#	c #121719",
"j#	c #49292B",
"k#	c #4F2428",
"l#	c #331D24",
"m#	c #22252C",
"n#	c #5F5053",
"o#	c #A19293",
"p#	c #A99797",
"q#	c #C5B1B1",
"r#	c #CCBFBF",
"s#	c #685E5D",
"t#	c #1C2D2A",
"u#	c #101917",
"v#	c #0A0F0D",
"w#	c #010604",
"x#	c #2D2825",
"y#	c #AA9E9B",
"z#	c #D0C2BF",
"A#	c #C0B1AD",
"B#	c #AA9E99",
"C#	c #A3938E",
"D#	c #746764",
"E#	c #3B393B",
"F#	c #091A22",
"G#	c #07111B",
"H#	c #2C2736",
"I#	c #422E3C",
"J#	c #58454F",
"K#	c #817177",
"L#	c #A59DA1",
"M#	c #A39093",
"N#	c #B59FA0",
"O#	c #D5C9C9",
"P#	c #968888",
"Q#	c #292D2C",
"R#	c #0C1615",
"S#	c #020D0A",
"T#	c #40403C",
"U#	c #ACA29F",
"V#	c #C9C2C1",
"W#	c #A28E8A",
"X#	c #997B78",
"Y#	c #A18F8F",
"Z#	c #978A8D",
"`#	c #5F6169",
" $	c #1D2A3E",
".$	c #09192D",
"+$	c #131628",
"@$	c #574851",
"#$	c #847A7E",
"$$	c #7F7079",
"%$	c #B9ACB0",
"&$	c #D3C8C9",
"*$	c #948E90",
"=$	c #303334",
"-$	c #121A1B",
";$	c #000504",
">$	c #020C0A",
",$	c #353131",
"'$	c #8E8686",
")$	c #C4BFBE",
"!$	c #BFB3B3",
"~$	c #977F83",
"{$	c #845B63",
"]$	c #AA9EA3",
"^$	c #858186",
"/$	c #292C38",
"($	c #32303B",
"_$	c #2F2E3A",
":$	c #403B44",
"<$	c #9A969A",
"[$	c #C2BEC1",
"}$	c #827B80",
"|$	c #2F3036",
"1$	c #14191D",
"2$	c #090E11",
"3$	c #020E16",
"4$	c #161618",
"5$	c #595252",
"6$	c #837D7F",
"7$	c #908D8E",
"8$	c #494452",
"9$	c #99909A",
"0$	c #B7B0B6",
"a$	c #B7B5B9",
"b$	c #B4B1B4",
"c$	c #8A888C",
"d$	c #64606D",
"e$	c #7C7685",
"f$	c #5E586C",
"g$	c #2E2B3D",
"h$	c #12141F",
"i$	c #02050B",
"j$	c #000204",
"k$	c #01040E",
"l$	c #02030B",
"m$	c #181622",
"n$	c #1B1A30",
"o$	c #3B394A",
"p$	c #79737F",
"q$	c #938793",
"r$	c #928799",
"s$	c #706883",
"t$	c #50456D",
"u$	c #423465",
"v$	c #3A2E5C",
"w$	c #282248",
"x$	c #181529",
"y$	c #090714",
"z$	c #000002",
"A$	c #02030D",
"B$	c #08081C",
"C$	c #120E2A",
"D$	c #171131",
"E$	c #1E1737",
"F$	c #2C1E4C",
"G$	c #2B1B48",
"H$	c #281A46",
"I$	c #221848",
"J$	c #171138",
"K$	c #120C25",
"L$	c #140C1D",
"M$	c #08040C",
"N$	c #03020D",
"O$	c #01010E",
"P$	c #020214",
"Q$	c #1B0D2F",
"R$	c #130A28",
"S$	c #140A25",
"T$	c #1A0C25",
"U$	c #150C20",
"V$	c #0E0716",
"W$	c #030104",
"X$	c #07030D",
"Y$	c #13071B",
"Z$	c #0F0516",
"`$	c #060209",
"  . + @ @ @ @ @ @ @ # # # # # # $ $ $ $ $ $ # # # @ @ @ @ +     ",
". . . . . . . . . . . . % & * = . . . . . . . . . . . . . . .   ",
". . . . . . . . . . . . - ; > , ' ) ! ~ . . . . . . . . . . . . ",
". . . . . . . . . . { ] ^ / ( _ : < [ } | 1 2 3 # . . . . . . . ",
". . . . . . . . 4 5 6 7 8 9 0 a b c d e f g h i j k . . . . . . ",
". . . . . . . l 5 m n o p q r s t u v w x y z A B C D . . . . . ",
". . . . . . l E F G H I J K q L M N O P Q R S T U V W X . . . . ",
". . . . + 4 Y Z `  ...+.@.#.$.%.&.*.=.-.;.>.,.'.).!.~.{.# . . . ",
". . . # ].^./.(._.:.<.[.}.|.1.2.3.4.5.6.7.8.9.0.a.b.c.d.e.. . . ",
". . + f.g.h.i.j.k.l.m.n.o.p.q.r.s.t.u.v.7.w.x.y.z.A.B.C.e.. . . ",
". . D.E.F.G.H.I.J.K.L.M.N.O.P.Q.R.S.T.U.V.W.X.Y.Z.`. +.+++. . . ",
". . @+#+$+%+&+*+=+-+;+>+,+'+)+!+# ~+{+]+^+/+(+_+:+<+[+}+|+# . . ",
". . 1+2+3+4+5+6+7+8+1 9+0+!++ . . $ !+a+b+c+d+e+f+g+h+i+j++ . . ",
". + k+l+m+n+o+p+q+r+s+t+~+u+. . . . v+w+x+y+z+A+B+C+D+E+F++ . . ",
". $ G+H+I+J+K+L+M+N+O+P+Q+. . . . . . # R+S+T+U+V+W+X+Y+Z+! . . ",
". $ `+ @.@+@@@#@$@%@&@*@Q+. . . . . . $ ~+=@-@;@>@,@'@)@Z+e.. . ",
". . !@~@{@]@^@/@(@_@:@<@!@. . . . . . $ [@}@|@1@2@3@4@5@6@! . . ",
". . . 7@8@9@0@a@b@c@d@e@f@! . . . . + t+g@h@i@j@k@l@m@n@o@! . . ",
". . . p@q@r@s@t@u@v@w@x@y@z@. . . . !+A@B@C@D@E@F@G@H@I@J@K@. . ",
". . . L@M@N@O@P@Q@R@S@T@U@V@W@X@!+Y@Z@`@ #.#+#@###$#%#&#*#=#. . ",
". . . v+-#;#>#,#'#)#!#~#{#]#^#/#(#_#:#<#[#}#|#1#2#3#4#5#6#7#. . ",
". . . . 8#9#0#a#b#c#d#e#f#g#h#i#j#k#l#m#n#o#p#q#r#s#t#u#v#! . . ",
". . . . ! w#x#y#z#A#B#C#D#E#F#G#H#I#J#K#L#M#N#O#P#Q#R#X@v+. . . ",
". . . . . ~ S#T#U#V#W#X#Y#Z#`# $.$+$@$#$$$%$&$*$=$-$o@. . . . . ",
". . . . . . ;$>$,$'$)$!$~${$]$^$/$($_$:$<$[$}$|$1$2$! . . . . . ",
". . . . . . . ~ 3$4$5$6$7$8$9$0$a$b$c$d$e$f$g$h$i$. . . . . . . ",
". . . . . . . . j$k$l$m$n$o$p$q$r$s$t$u$v$w$x$y$. . . . . . . . ",
". . . . . . . . . + z$A$B$C$D$E$F$G$H$I$J$K$L$M$. . . . . . . . ",
". . . . . . . . . . . . @ N$O$P$Q$R$S$T$U$V$W$. . . . . . . . . ",
". . . . . . . . . . . . . . . . X$Y$Z$`$# . . . . . . . . . . . ",
". . . . . . . . . . . . . . . . . . . . . . . . . . . . . . .   ",
"  . . . . . . . . . . . . . . . . . . . . . . . . . . . . .     "};
